<?xml version="1.0" standalone="no"?>
<!DOCTYPE svg PUBLIC "-//W3C//DTD SVG 20010904//EN"
 "http://www.w3.org/TR/2001/REC-SVG-20010904/DTD/svg10.dtd">
<svg version="1.0" xmlns="http://www.w3.org/2000/svg"
 width="310.000000pt" height="310.000000pt" viewBox="0 0 310.000000 310.000000"
 preserveAspectRatio="xMidYMid meet">
<metadata>
Created by potrace 1.14, written by Peter Selinger 2001-2017
</metadata>
<g transform="translate(0.000000,310.000000) scale(0.100000,-0.100000)"
fill="#000000" stroke="none">
<path d="M968 2755 c-2 -2 -28 -6 -58 -10 -101 -12 -254 -54 -328 -91 -131
-65 -180 -132 -196 -274 -10 -85 -17 -155 -21 -195 -2 -22 -6 -56 -9 -75 -2
-19 -7 -55 -10 -80 -3 -25 -8 -67 -12 -95 -3 -27 -8 -66 -9 -85 -2 -19 -4 -35
-5 -35 -1 0 -5 -31 -14 -135 -4 -41 -10 -88 -12 -105 -3 -16 -7 -50 -9 -75 -2
-25 -6 -56 -9 -70 -2 -14 -7 -54 -11 -90 -4 -36 -9 -78 -11 -95 -5 -47 -5
-207 1 -237 3 -16 7 -38 9 -50 8 -47 55 -160 87 -214 44 -72 127 -158 195
-201 115 -73 339 -155 464 -169 19 -2 46 -6 60 -9 136 -27 365 -27 518 -1 15
3 42 8 61 11 80 14 228 84 279 132 7 7 21 18 31 25 38 28 113 132 150 211 39
82 66 173 76 257 3 25 8 62 10 83 3 20 7 54 9 75 18 151 28 229 30 244 3 21 9
29 28 32 7 2 27 9 43 15 17 7 37 14 45 16 8 2 31 9 50 14 93 29 194 -2 227
-67 14 -30 18 -59 17 -152 0 -63 -4 -142 -9 -175 -4 -33 -9 -76 -10 -95 -2
-19 -4 -35 -5 -35 -1 0 -3 -16 -5 -35 -1 -19 -6 -62 -10 -95 -14 -108 -11
-220 8 -249 19 -29 55 -55 83 -60 11 -2 24 -5 29 -6 30 -7 65 3 102 27 36 23
45 36 62 92 12 36 23 83 26 105 2 21 7 55 10 75 7 54 16 134 17 151 0 8 4 47
9 85 4 39 11 95 14 125 4 30 8 68 11 84 3 16 7 50 9 75 2 25 5 46 5 46 3 0 10
84 15 184 5 100 4 105 -20 137 -14 19 -34 38 -45 44 -18 10 -113 37 -160 46
-14 3 -38 9 -55 14 -33 10 -74 19 -118 26 -16 2 -32 6 -37 9 -4 3 -25 7 -46
10 -22 4 -52 10 -69 15 -47 13 -108 23 -128 21 -17 -2 -40 36 -31 51 3 4 7 33
9 65 3 32 8 81 12 108 6 47 8 167 2 208 -1 9 -7 17 -12 17 -6 0 -7 3 -4 6 8 8
-46 78 -92 119 -50 44 -157 107 -252 148 -84 35 -206 77 -244 82 -11 2 -20 4
-20 5 0 2 -9 4 -20 5 -11 2 -40 8 -65 13 -25 6 -76 16 -115 22 -38 6 -83 14
-100 16 -32 6 -422 13 -427 9z"/>
</g>
</svg>
